<svg xmlns="http://www.w3.org/2000/svg" viewBox="0 -1536 1280 1280">
  <style>
    /* Black glyph in light mode, white in dark mode. Transparent background. */
    path { fill: #000; }
    @media (prefers-color-scheme: dark) { path { fill: #fff; } }
  </style>
  <path transform="scale(1,-1)" d="M0 1536H1280V256H0ZM128 1408V1280H256V1408ZM384 1408V1280H256V1152H128V768H256V896H384V1024H512V1152H640V1280H768V1408ZM896 1408V1280H768V1152H640V1024H512V896H384V768H256V640H128V384H384V512H512V640H640V768H768V896H896V1024H1024V1152H1152V1408ZM1024 1024V896H896V768H768V640H640V512H512V384H896V512H1024V640H1152V1024ZM1024 512V384H1152V512ZM640 1280H768V1152H640ZM512 1152H640V1024H512ZM384 1024H512V896H384ZM896 1024H1024V896H896ZM256 896H384V768H256ZM768 896H896V768H768ZM640 768H768V640H640ZM512 640H640V512H512Z"/>
</svg>
